<svg width="85" height="24" fill="none" xmlns="http://www.w3.org/2000/svg"><path d="M13 11.2c.1-1.6.9-3 2.2-3.9-.8-1.2-2.1-1.9-3.6-2-1.4-.1-2.9 1-3.6 1-.8 0-2-1-3.2-1C3 5.5 1.6 6.5.8 8-.9 11 .4 15.6 2 18.1c.8 1.2 1.8 2.6 3 2.5 1.3 0 1.7-.8 3.2-.8 1.5 0 2 .8 3.2.8 1.3 0 2.1-1.3 3-2.5.5-.9 1-1.8 1.3-2.9a4.4 4.4 0 01-2.6-4zM10.5 3.2c.7-.9 1.1-2 1-3.2-1 .1-2 .7-2.8 1.5-.7.9-1.1 2-1 3.1 1 0 2.1-.5 2.8-1.4z" fill="#fff"/><path fill-rule="evenodd" clip-rule="evenodd" d="M23.1 17h4l1 3h1.7L26 8.8h-1.8l-3.8 11h1.7l1-3zm3.6-1.4h-3.2l1.6-4.9 1.6 4.9zM35.5 20.7c2 0 3.2-1.6 3.2-4.1 0-2.5-1.2-4.2-3.2-4.2-1 0-2 .6-2.5 1.5v-1.4h-1.5v10.7H33v-4c.5 1 1.4 1.5 2.4 1.5zm-.4-6.8c1.2 0 2 1 2 2.7 0 1.6-.8 2.7-2 2.7s-2-1.1-2-2.7c0-1.7.8-2.7 2-2.7zM44 20.7c2 0 3.3-1.6 3.3-4.1 0-2.5-1.3-4.2-3.3-4.2-1 0-2 .6-2.4 1.5v-1.4H40v10.7h1.6v-4c.5 1 1.4 1.5 2.4 1.5zm-.4-6.8c1.2 0 2 1 2 2.7 0 1.6-.8 2.7-2 2.7s-2-1.1-2-2.7c0-1.7.8-2.7 2-2.7z" fill="#fff"/><path d="M52.7 17c0 1.1 1.1 1.8 2.5 1.8 1.3 0 2.3-.7 2.3-1.7 0-.8-.6-1.3-2-1.7l-1.3-.3c-2-.5-2.9-1.5-2.9-3 0-1.9 1.6-3.2 3.9-3.2 2.2 0 3.7 1.3 3.8 3.2h-1.6c-.1-1.1-1-1.8-2.2-1.8-1.3 0-2.2.7-2.2 1.7 0 .8.6 1.2 2 1.6l1 .3c2.3.5 3.2 1.4 3.2 3 0 2.1-1.6 3.4-4.1 3.4-2.4 0-4-1.3-4-3.3h1.6zM62.3 10.7v1.9h1.4v1.3h-1.4v4.4c0 .7.3 1 1 1h.4v1.3H63c-1.6 0-2.2-.5-2.2-2.1v-4.6h-1.1v-1.3h1v-2h1.7z" fill="#fff"/><path fill-rule="evenodd" clip-rule="evenodd" d="M68.3 12.4c-2.2 0-3.6 1.6-3.6 4.2 0 2.5 1.4 4 3.6 4 2.3 0 3.7-1.5 3.7-4 0-2.6-1.4-4.2-3.7-4.2zm0 1.4c1.3 0 2 1 2 2.8 0 1.7-.7 2.7-2 2.7s-2-1-2-2.7c0-1.8.7-2.8 2-2.8z" fill="#fff"/><path d="M73.2 12.5h1.5V14c.2-.9 1-1.5 1.9-1.5l.5.1v1.6c-.2-.1-.5-.2-.7-.1-.5 0-1 .1-1.2.5-.3.3-.5.8-.4 1.3v4.8h-1.6v-8z" fill="#fff"/><path fill-rule="evenodd" clip-rule="evenodd" d="M81 20.7c1.8 0 3.2-1 3.4-2.5h-1.5c-.3.8-1 1.2-1.8 1.2a2 2 0 01-1.5-.7c-.4-.4-.6-1-.6-1.6V17h5.5v-.6c0-2.4-1.4-4-3.5-4-2.2 0-3.6 1.7-3.6 4.2s1.4 4 3.7 4zm1.9-4.9H79c0-.5.2-1 .6-1.4a2 2 0 012.8 0c.3.4.5.9.5 1.4z" fill="#fff"/><path d="M22.5 3.3h.6c.3 0 .5 0 .7-.2.2-.2.3-.4.3-.7 0-.5-.4-.8-1-.8-.2 0-.4 0-.6.2a1 1 0 00-.4.7h-.7c0-.5.2-1 .5-1.2.4-.3.8-.5 1.3-.4 1 0 1.7.6 1.7 1.4 0 .6-.4 1.1-1 1.2v.1c.7 0 1.2.6 1.2 1.3 0 .5-.3.9-.7 1.2-.3.3-.8.4-1.2.4-.5 0-1-.1-1.3-.4-.4-.3-.6-.7-.6-1.2h.7c0 .5.5.8 1.2.8.6 0 1-.3 1-.9 0-.5-.3-.8-1-.8h-.7v-.7z" fill="#fff"/><path fill-rule="evenodd" clip-rule="evenodd" d="M27.8 3.5c-1 0-1.4.5-1.4 1.2 0 .4.1.7.4 1 .2.1.5.3.9.2.4 0 .9-.2 1.1-.6v.6h.8V3c0-.8-.5-1.3-1.5-1.3-.9 0-1.5.4-1.6 1.1h.8c0-.3.3-.4.8-.4s.7.2.7.6v.4h-1zm1 .5v.4c0 .2 0 .5-.3.6-.2.2-.4.3-.7.3-.4 0-.7-.3-.7-.6 0-.4.3-.6.8-.6h1z" fill="#fff"/><path d="M31.4 2.4v3.4h-.8v-4h2.6v.6h-1.8z" fill="#fff"/><path fill-rule="evenodd" clip-rule="evenodd" d="M36 6c1 0 1.6-.9 1.6-2.2 0-1.2-.6-2-1.6-2-.5 0-1 .2-1.2.7v-.7H34v5.4h.8v-2c.3.5.7.7 1.2.7zm-.2-3.5c.7 0 1 .5 1 1.3 0 .9-.3 1.4-1 1.4-.6 0-1-.5-1-1.4 0-.8.4-1.3 1-1.3z" fill="#fff"/><path d="M38.7 7.2v-.7h.2c.4 0 .7-.2.7-.5v-.2l-1.3-4h.8l1 3.2 1-3.2h.8l-1.4 4.1c-.4 1-.7 1.3-1.5 1.3h-.3zM42.5 4.7h.8c0 .4.4.6.8.6.5 0 .8-.3.8-.6 0-.4-.2-.6-.8-.6h-.5v-.6h.5c.5 0 .7-.2.7-.5s-.2-.5-.7-.5c-.4 0-.7.1-.8.5h-.7c.1-.8.8-1.3 1.5-1.2 1 0 1.5.4 1.5 1.1 0 .4-.3.7-.7.8.5.1.8.5.8 1 0 .7-.6 1.2-1.6 1.2-.8 0-1.5-.4-1.6-1.2zM46.8 5.8v-4h.7v2.7h.1l1.8-2.7h.7v4h-.7V3l-1.9 2.8h-.7zM54.2 2.4H53v3.4h-.7V2.4H51v-.6h3.1v.6z" fill="#fff"/><path fill-rule="evenodd" clip-rule="evenodd" d="M57.1 6c.7 0 1.4-.5 1.7-1.2H58a1 1 0 01-.9.5 1 1 0 01-.7-.4 1 1 0 01-.3-.8h2.7v-.3c0-1.3-.6-2-1.7-2-.5 0-1 .2-1.3.6-.4.4-.5 1-.5 1.5s.1 1 .5 1.4c.3.4.8.6 1.3.6zm1-2.5h-2c0-.3.1-.6.3-.8.2-.1.4-.3.7-.2.2 0 .5 0 .7.3.2.1.3.4.2.7zM61.3 1.8H63c.7 0 1.2.4 1.2 1 0 .4-.3.8-.7.8v.1c.5 0 .9.4.9 1s-.5 1-1.4 1h-1.7v-4zm.7.6v1h.8c.4 0 .6-.2.6-.5s-.2-.5-.6-.5H62zm0 2.8V4h.8c.5 0 .8.2.8.6 0 .4-.2.6-.7.6H62z" fill="#fff"/></svg>