<svg width="94" height="23" fill="none" xmlns="http://www.w3.org/2000/svg"><path d="M26.2 3.6h.6a.8.8 0 001-.7c0-.5-.4-.8-1-.8a.9.9 0 00-1 .8h-.6c0-.4.2-.8.5-1 .3-.4.7-.5 1.1-.4 1 0 1.7.5 1.7 1.3 0 .5-.4 1-1 1V4c.7 0 1.2.6 1.2 1.2a1.6 1.6 0 01-1.8 1.4A1.6 1.6 0 0125 5h.7c0 .4.4.7 1 .7.7 0 1-.3 1-.8 0-.4-.3-.7-1-.7h-.6v-.7z" fill="#fff"/><path fill-rule="evenodd" clip-rule="evenodd" d="M31.2 3.8C30.4 4 30 4.3 30 5c0 .3.1.6.4.8.2.2.5.3.8.3.4 0 .9-.2 1-.6h.1V6h.7V3.5c0-.8-.5-1.2-1.4-1.2-.8 0-1.4.4-1.5 1h.7c.1-.3.4-.4.8-.4.5 0 .7.2.7.6v.3h-1zm1 .5v.3a.8.8 0 01-1 .8c-.3 0-.6-.2-.6-.5s.2-.5.7-.5h1z" fill="#fff"/><path d="M34.6 2.9v3H34V2.3h2.4v.6h-1.7z" fill="#fff"/><path fill-rule="evenodd" clip-rule="evenodd" d="M39 6c1 0 1.5-.7 1.5-1.9 0-1.1-.6-1.8-1.5-1.8-.4 0-.9.2-1.1.6v-.6H37v4.8h.8V5.4c.2.4.7.6 1.1.6zm-.2-3.1c.6 0 1 .5 1 1.2 0 .8-.4 1.2-1 1.2s-1-.4-1-1.2c0-.7.4-1.2 1-1.2z" fill="#fff"/><path d="M41.5 7.2v-.7h.3c.3 0 .6-.1.6-.4v-.2l-1.2-3.6h.8l.9 2.8 1-2.8h.7L43.2 6c-.3.9-.6 1.2-1.4 1.2h-.3zM45.2 5h.7c0 .2.4.4.8.4.5 0 .8-.2.8-.5 0-.4-.3-.5-.8-.5h-.5v-.6h.5c.4 0 .6-.2.6-.5 0-.2-.2-.4-.6-.4-.4 0-.7.1-.7.4h-.7c0-.6.7-1.1 1.4-1 .9 0 1.3.4 1.3 1 0 .3-.2.6-.5.7.4.1.7.5.7.9 0 .7-.6 1.1-1.5 1.1-.8 0-1.4-.3-1.5-1zM49.2 5.9V2.3h.7v2.4l1.8-2.4h.7v3.6h-.7V3.4l-1.8 2.5h-.7zM56.3 2.9H55v3h-.7v-3h-1.1v-.6h3v.6z" fill="#fff"/><path fill-rule="evenodd" clip-rule="evenodd" d="M59 6c.7 0 1.3-.4 1.5-1H60c-.2.3-.6.4-.9.4a1 1 0 01-.7-.3 1 1 0 01-.3-.7h2.6V4c0-1.2-.6-1.8-1.6-1.8-.5 0-1 .2-1.3.5-.3.4-.5.9-.4 1.3 0 .5 0 1 .4 1.4.3.3.8.5 1.3.5zm.9-2.2H58a1 1 0 011-1 .9.9 0 01.9 1zM63 2.3h1.6c.7 0 1 .3 1 .9 0 .3-.2.7-.5.7V4c.4 0 .8.4.7.8 0 .7-.4 1-1.2 1h-1.7V2.4zm.6.5v1h.7c.5 0 .7-.2.7-.5s-.2-.5-.6-.5h-.8zm0 2.5v-1h.8c.5 0 .7.1.7.5 0 .3-.2.5-.6.5h-.9zM30.4 13.5v1.4h3.4a3 3 0 01-.8 1.8c-.5.5-1.3 1-2.6 1a3.7 3.7 0 01-3.8-3.8c0-2.1 1.7-3.8 3.8-3.8a4 4 0 012.6 1l1-1c-.8-.8-2-1.4-3.5-1.4a5.4 5.4 0 00-5.4 5.2c0 3 2.5 5.3 5.4 5.3 1.6 0 2.7-.5 3.7-1.5s1.3-2.3 1.3-3.4l-.1-.8h-5zm9-1c-2 0-3.5 1.4-3.5 3.4 0 1.9 1.5 3.4 3.4 3.4 2 0 3.5-1.4 3.5-3.4 0-2.1-1.5-3.5-3.5-3.5zm4 3.4c0-2 1.5-3.5 3.4-3.5 2 0 3.5 1.4 3.5 3.5 0 2-1.6 3.4-3.5 3.4-2 0-3.5-1.5-3.5-3.4zm1.5-.1c0 1.2.9 2 2 2 1 0 1.8-.8 1.8-2 0-1.3-.8-2.1-1.9-2.1-1 0-2 .9-2 2zm-7.5 0c0 1.2.9 2 2 2 1 0 1.9-.8 1.9-2 0-1.3-1-2.1-2-2.1s-2 .9-2 2zM64 12.4c1.7 0 2.5 1.4 2.9 2.2l.1.4-4.6 1.9c.4.7 1 1 1.7 1 .8 0 1.3-.4 1.7-1l1.1.9c-.3.5-1.3 1.5-2.8 1.5-2 0-3.4-1.5-3.4-3.4 0-2.1 1.5-3.5 3.3-3.5zm-1.8 3.3c0-1.3 1-2 1.8-2 .5 0 1 .3 1.2.7l-3 1.3zM60 19h-1.5V9H60v10zM56 13c-.3-.4-1-.8-1.8-.8a3.4 3.4 0 00-3.3 3.5c0 1.9 1.6 3.3 3.3 3.3.8 0 1.5-.4 1.8-.8v.5c0 1.3-.6 2-1.8 2-.9 0-1.5-.6-1.7-1.2l-1.3.6c.4.9 1.4 2 3.1 2 1.8 0 3.2-1 3.2-3.5v-6.1h-1.4v.5zm-3.6 2.7c0 1.2.9 2 1.9 2 1 0 1.9-.8 1.9-2s-.8-2.1-1.9-2.1c-1 0-2 .9-2 2zM74 9h-3.7v10H72v-3.8h2c1.8 0 3.4-1.2 3.4-3.1 0-2-1.6-3.1-3.3-3.1zm-2.1 4.8H74c1 0 1.7-.9 1.8-1.8 0-.7-.6-1.7-1.8-1.7H72v3.5zm11.4-1.5c-1.1 0-2.2.5-2.7 1.6l1.4.5c.3-.5.8-.7 1.4-.7.8 0 1.5.5 1.6 1.3-.2-.1-.9-.3-1.5-.3-1.5 0-3 .8-3 2.2 0 1.4 1.3 2.2 2.6 2.2 1 0 1.5-.4 1.9-1v.9h1.5V15c-.1-1.7-1.5-2.8-3.2-2.8zM82 17c0 .6.8.9 1.2.9.9 0 1.7-.7 1.8-1.6h-.1c-.4-.2-.7-.4-1.2-.4-.8 0-1.7.3-1.7 1zm9.7-4.4L90 16.9 88 12.6h-1.6l2.6 6-1.5 3.4H89l4.1-9.4h-1.6zm-12 6.4h-1.5V9h1.5v10z" fill="#fff"/><path d="M.4.3c-.2.2-.4.6-.4 1v17.8c0 .4.2.8.4 1v.2l10-10v-.1L.5.2z" fill="url(#paint0_linear)"/><path d="M13.8 13.7l-3.3-3.3v-.2l3.3-3.3 4 2.3c1.1.7 1.1 1.7 0 2.3l-4 2.2z" fill="url(#paint1_linear)"/><path d="M13.9 13.6l-3.4-3.3-10.1 10c.4.4 1 .4 1.7 0l11.8-6.7z" fill="url(#paint2_linear)"/><path d="M13.9 6.9L2 .3C1.4-.1.8-.1.4.3l10 10L14 6.9z" fill="url(#paint3_linear)"/><path opacity=".2" d="M13.8 13.5L2 20.1c-.6.4-1.2.3-1.6 0H.4v.2c.5.3 1 .4 1.7 0l11.7-6.8z" fill="#000"/><path opacity=".1" d="M.4 20.1c-.2-.2-.3-.6-.3-1.1 0 .5.1 1 .4 1.2V20H.4zM17.8 11.3l-4 2.2v.1l4-2.2c.6-.3.8-.7.8-1.1 0 .4-.3.7-.8 1z" fill="#000"/><path opacity=".3" d="M2 .3l15.8 9c.5.2.8.6.8 1 0-.4-.2-.8-.8-1.2L2.1.3C1-.4 0 .2 0 1.5 0 .3 1-.3 2 .3z" fill="#fff"/><defs><linearGradient id="paint0_linear" x1="6.1" y1="-11.7" x2="-9.9" y2="-7.3" gradientUnits="userSpaceOnUse"><stop stop-color="#00A0FF"/><stop offset="0" stop-color="#00A1FF"/><stop offset=".3" stop-color="#00BEFF"/><stop offset=".5" stop-color="#00D2FF"/><stop offset=".8" stop-color="#00DFFF"/><stop offset="1" stop-color="#00E3FF"/></linearGradient><linearGradient id="paint1_linear" x1="19.3" y1="2.2" x2="-.2" y2="2.2" gradientUnits="userSpaceOnUse"><stop stop-color="#FFE000"/><stop offset=".4" stop-color="#FFBD00"/><stop offset=".8" stop-color="orange"/><stop offset="1" stop-color="#FF9C00"/></linearGradient><linearGradient id="paint2_linear" x1=".1" y1="5.1" x2="-12.6" y2="26.6" gradientUnits="userSpaceOnUse"><stop stop-color="#FF3A44"/><stop offset="1" stop-color="#C31162"/></linearGradient><linearGradient id="paint3_linear" x1="-7.4" y1="-2.5" x2="-1.8" y2="7.2" gradientUnits="userSpaceOnUse"><stop stop-color="#32A071"/><stop offset=".1" stop-color="#2DA771"/><stop offset=".5" stop-color="#15CF74"/><stop offset=".8" stop-color="#06E775"/><stop offset="1" stop-color="#00F076"/></linearGradient></defs></svg>