<svg width="17" height="17" fill="none" xmlns="http://www.w3.org/2000/svg"><path fill-rule="evenodd" clip-rule="evenodd" d="M8.4 0H5C1.9.3.2 2 0 5a59.3 59.3 0 000 7c.2 3 1.9 4.7 5 4.8a60.3 60.3 0 007 0c3-.1 4.7-1.8 4.8-4.9a59.2 59.2 0 000-7C16.7 2 15 .3 12 .2L8.4 0zm0 1.5h3.4c2.3.2 3.4 1.3 3.5 3.5a58.6 58.6 0 010 6.8c-.1 2.3-1.2 3.4-3.5 3.5a58.5 58.5 0 01-6.8 0c-2.3-.1-3.3-1.2-3.4-3.5a58.3 58.3 0 010-6.8c0-2.2 1.1-3.3 3.4-3.4h3.4zm-4.3 7a4.3 4.3 0 118.7 0 4.3 4.3 0 01-8.7 0zm4.3 2.7a2.8 2.8 0 110-5.6 2.8 2.8 0 010 5.6zM12 4a1 1 0 112 0 1 1 0 01-2 0z" fill="#fff"/></svg>