<svg width="224" height="55" fill="none" xmlns="http://www.w3.org/2000/svg"><g clip-path="url(#clip0)" fill="#231F20"><path d="M87.8 54.8h1.5v-3H92c1.3 0 3.4 0 3.4-2.3 0-2.4-2.1-2.4-3.4-2.4h-4.3v7.7zm1.5-4.3v-2h3.1c.9 0 1.6 0 1.6 1s-.7 1-1.6 1h-3.1zM97.4 54.8H99l.8-1.7h4.5l.8 1.7h1.6l-3.8-7.7h-1.7l-3.8 7.7zm3-3l1.6-3.5 1.7 3.5h-3.3zM110.4 54.8h1.5v-3h2.5l2.2 3h1.9l-2.4-3.1c1.1 0 2.2-.9 2.2-2.3 0-1.8-1.3-2.3-3.2-2.3h-4.7v7.7zm1.5-4.3v-2.1h3c1.2 0 1.9.2 1.9 1 0 1-.7 1.1-2 1.1H112zM124.5 47.1H123v7.7h1.5v-7.7zM135.2 49.5c-.2-.7-.9-1.3-2.7-1.3-1 0-2 .3-2 1 0 .3.1.6 1.7.8l1.8.3c1.7.3 2.8 1 2.8 2.2 0 1.8-1.8 2.5-3.8 2.5-3.4 0-4.2-1.6-4.4-2.2l1.5-.5c.3.6.8 1.4 2.9 1.4 1.2 0 2.2-.4 2.2-1s-.5-.9-1.6-1l-1.9-.3c-1.8-.2-2.8-1-2.8-2.2 0-2.2 3-2.2 3.6-2.2 3.4 0 4 1.5 4.1 2l-1.4.5zM192.5 34.5c.6 5.3 3.4 4.5 3.5 5h-10.7c0-.2 3-.1 2.4-4.8L185 13.8c0-.5 0-1.1-.4-1-.2.1-9.5 22.5-9.5 22.5-.1.4-.3.6-.6.1-.3-.4-8.7-19-8.7-19l-1.3-2.7c-.2-.4-.5-.5-.5 1L161.7 36c-.5 3.7 3 3.4 2.9 3.7H157c-.1-.2 2.5.1 3.1-3.8l2.5-23.3c-.2-4.5-3.4-4.3-3.4-4.6h8l.2.2 8.5 18.6.3.4c.2.6.2 1 .5.2L185 7.8h7.7c0 .3-3 .2-3 4l2.8 22.7zM16.7 38.4h-4.4c-1.5 0-3.3.3-3.3-1.5V12.3c0-3.8 4.2-3.8 4.5-4H.5c-.2.2 4 .3 4 4.2V36c0 3.2-4.5 3.3-4.5 3.4h23l1.2-6.7c-.5 0-.1 5.6-7.5 5.6zM207.3 23.9V35.8c0 2.4-.2 2.7 1.3 2.7h8.5c6.8-.4 5.6-5.2 6.2-5.3l-.3 6.4h-23.8c0-.3 3.6.3 3.6-4.9v-22c0-5.1-3.4-4.3-3.3-4.7H223l.2 6.2c-.5 0 .7-4.9-6.3-5.3h-7.8c-1.2.3-2-.5-2 2.6v8.2c0 1.2.1 1.3 1.7 1.3h7.6c3.8 0 3.3-3.5 3.6-3.5v8.2c-.3 0 .2-3.8-3.4-3.7H209c-1.7 0-1.7.6-1.7 1.8v.1zM65.6 36.3c.4 3.9 3.4 2.9 3.4 3.2h-8.3c0-.3 3.3 0 3.2-3.5V12.2c.1-4-3.5-4-3.6-4.4h8.4l17.2 21.4V11.8c-.1-4.1-3.3-3.9-3.4-4h8.7c0 .1-3.4.2-3.6 4v27s.3 2-1 .4L66 12.9c-.2-.3-.3 0-.3.6V36.3zM54.4 35.6L42.8 8c-.9-1-1.2.1-1.2.1L30 36.3c-1.5 3.4-3.4 3-3.4 3.3H34c0-.4-4 .2-2.6-3.3l4-9.9c.4-.6.4-.8 1.4-.8h7.5c1 0 1 0 1.4.9l3.8 9.3c1.1 3.7-2.3 3.5-2.2 3.8h10.6c.1-.4-1.6.7-3.5-4zM37.6 24c-.9 0-.8-.5-.4-1.3l3.1-8c.5-1 1-.8 1.2.2l2.9 8c.3.8.6 1-.3 1h-6.5zM152.6 6.3L139.8 0l-12.7 6.3 12.7-4 12.8 4zM140 7.3c-10 0-16.5 7.9-16.5 16.3s6.4 16 16.3 16c10 0 16.5-7.6 16.5-16s-6.4-16.3-16.4-16.3zm-.2 31c-6.2 0-10.2-5.7-10.2-14.6 0-10.3 4.1-15.2 10.2-15.2s10.3 5 10.3 15.2c0 8.9-4.2 14.6-10.3 14.7zM109.6 38.3c7.2-.1 10.4-5.1 11-5.3a13 13 0 01-11.1 6.5C92.4 39.5 92.7 24 92.7 24c.5-11 9.3-17.4 17.8-16.5 2.2.2 3.2.6 4.9 1 .8.3 2.9 1.5 3.7 1.2.6-.3 1-1.5 1.2-1.6v8.5c-.6 0-2.4-8.1-10.6-8.1-6.7 0-11.8 7.6-11.6 15 .1 12.6 8.9 14.8 11.5 14.8z"/></g><defs><clipPath id="clip0"><path fill="#fff" d="M0 0h223.3v55H0z"/></clipPath></defs></svg>