<svg width="11" height="18" fill="none" xmlns="http://www.w3.org/2000/svg"><path fill-rule="evenodd" clip-rule="evenodd" d="M5 9.3c2.6 0 4.6-2 4.6-4.7C9.6 2.1 7.6 0 5 0S.6 2 .6 4.6c0 2.6 2 4.7 4.5 4.7zm0-6.6c1 0 2 .9 2 2 0 1-1 1.9-2 1.9s-1.8-.9-1.8-2c0-1 .8-1.9 1.9-1.9zM9.6 12c-.8.5-1.7.9-2.6 1l2.5 2.7a1.4 1.4 0 010 1.9 1.3 1.3 0 01-1.9 0L5.1 15l-2.5 2.6c-.3.3-.8.5-1.3.4-.4-.2-.8-.5-1-1 0-.5 0-1 .4-1.3L3.2 13c-.9-.2-1.8-.6-2.6-1.1-.6-.4-.8-1.3-.4-2l.8-.5c.4-.1.7 0 1 .2a5.6 5.6 0 006.1 0 1.3 1.3 0 011.8.4c.4.6.2 1.5-.4 1.9z" fill="#fff"/></svg>