<svg width="21" height="11" fill="none" xmlns="http://www.w3.org/2000/svg"><path fill-rule="evenodd" clip-rule="evenodd" d="M20.2.7c.1-.4 0-.7-.7-.7h-2.3c-.6 0-.8.3-1 .6 0 0-1.1 2.5-2.7 4.1-.6.5-.8.6-1 .6-.2 0-.4-.1-.4-.5v-4c0-.6-.2-.8-.7-.8H8c-.4 0-.6.2-.6.5 0 .5.8.6.9 2v3c0 .6-.1.7-.4.7C7 6.2 5 3.7 4 .8 3.8.2 3.6 0 3 0H.8C0 0 0 .3 0 .6c0 .5.8 3.2 3.6 6.7a9 9 0 006.8 3.7c1.5 0 1.7-.3 1.7-.8V8.4c0-.6 0-.7.5-.7.4 0 1 .2 2.3 1.3 1.5 1.4 1.8 2 2.6 2h2.3c.6 0 1-.3.8-.9-.2-.5-1-1.4-2-2.3l-1.5-1.5c-.3-.4-.2-.6 0-.9 0 0 2.8-3.5 3-4.7z" fill="#fff"/></svg>